<svg xmlns="http://www.w3.org/2000/svg" xmlns:xlink="http://www.w3.org/1999/xlink" viewBox="0 0 300 480">
  <!-- Tarot Card Frame for Reddit Sentiment Analysis with Leprechaun Theme -->
  
  <!-- Card Background -->
  <rect x="10" y="10" width="280" height="460" rx="15" ry="15" fill="#1a2a40" stroke="#c6a859" stroke-width="5"/>
  
  <!-- External Image Reference to Leprechaun -->
  <image x="50" y="40" width="200" height="300" xlink:href="/static/images/leprechaun_card.jpg" preserveAspectRatio="xMidYMid slice"/>
  
  <!-- Ornate Border Pattern -->
  <rect x="20" y="20" width="260" height="440" rx="10" ry="10" fill="none" stroke="#c6a859" stroke-width="2" stroke-dasharray="5,5"/>
  
  <!-- Corner Ornaments -->
  <!-- Top Left -->
  <g transform="translate(30,30)">
    <circle cx="0" cy="0" r="8" fill="none" stroke="#c6a859" stroke-width="1.5"/>
    <circle cx="0" cy="0" r="4" fill="#c6a859"/>
    <line x1="8" y1="0" x2="20" y2="0" stroke="#c6a859" stroke-width="1.5"/>
    <line x1="0" y1="8" x2="0" y2="20" stroke="#c6a859" stroke-width="1.5"/>
  </g>
  
  <!-- Top Right -->
  <g transform="translate(270,30)">
    <circle cx="0" cy="0" r="8" fill="none" stroke="#c6a859" stroke-width="1.5"/>
    <circle cx="0" cy="0" r="4" fill="#c6a859"/>
    <line x1="-8" y1="0" x2="-20" y2="0" stroke="#c6a859" stroke-width="1.5"/>
    <line x1="0" y1="8" x2="0" y2="20" stroke="#c6a859" stroke-width="1.5"/>
  </g>
  
  <!-- Bottom Left -->
  <g transform="translate(30,450)">
    <circle cx="0" cy="0" r="8" fill="none" stroke="#c6a859" stroke-width="1.5"/>
    <circle cx="0" cy="0" r="4" fill="#c6a859"/>
    <line x1="8" y1="0" x2="20" y2="0" stroke="#c6a859" stroke-width="1.5"/>
    <line x1="0" y1="-8" x2="0" y2="-20" stroke="#c6a859" stroke-width="1.5"/>
  </g>
  
  <!-- Bottom Right -->
  <g transform="translate(270,450)">
    <circle cx="0" cy="0" r="8" fill="none" stroke="#c6a859" stroke-width="1.5"/>
    <circle cx="0" cy="0" r="4" fill="#c6a859"/>
    <line x1="-8" y1="0" x2="-20" y2="0" stroke="#c6a859" stroke-width="1.5"/>
    <line x1="0" y1="-8" x2="0" y2="-20" stroke="#c6a859" stroke-width="1.5"/>
  </g>
  
  <!-- Center Ornaments (top and bottom) -->
  <g transform="translate(150,60)">
    <circle cx="0" cy="0" r="15" fill="none" stroke="#c6a859" stroke-width="1.5"/>
    <circle cx="0" cy="0" r="8" fill="#c6a859" fill-opacity="0.5"/>
    <path d="M0,-15 L5,-5 L15,-8 L8,0 L15,8 L5,5 L0,15 L-5,5 L-15,8 L-8,0 L-15,-8 L-5,-5 Z" fill="none" stroke="#c6a859" stroke-width="1"/>
  </g>
  
  <g transform="translate(150,420)">
    <circle cx="0" cy="0" r="15" fill="none" stroke="#c6a859" stroke-width="1.5"/>
    <circle cx="0" cy="0" r="8" fill="#c6a859" fill-opacity="0.5"/>
    <path d="M0,-15 L5,-5 L15,-8 L8,0 L15,8 L5,5 L0,15 L-5,5 L-15,8 L-8,0 L-15,-8 L-5,-5 Z" fill="none" stroke="#c6a859" stroke-width="1"/>
  </g>
  
  <!-- Title Area Border -->
  <rect x="40" y="90" width="220" height="50" rx="5" ry="5" fill="none" stroke="#c6a859" stroke-width="1.5" stroke-dasharray="2,2"/>
  
  <!-- Content Area for Sentiment -->
  <rect x="40" y="160" width="220" height="200" rx="5" ry="5" fill="none" stroke="#c6a859" stroke-width="1.5" opacity="0.5"/>
  
  <!-- Decorative Divider Lines -->
  <line x1="50" y1="380" x2="125" y2="380" stroke="#c6a859" stroke-width="1"/>
  <line x1="175" y1="380" x2="250" y2="380" stroke="#c6a859" stroke-width="1"/>
  <circle cx="150" cy="380" r="5" fill="none" stroke="#c6a859" stroke-width="1"/>
  <circle cx="150" cy="380" r="2" fill="#c6a859"/>
</svg>
