<svg xmlns="http://www.w3.org/2000/svg" xmlns:xlink="http://www.w3.org/1999/xlink" viewBox="0 0 300 480">
  <!-- Tarot Card Back Design with Leprechaun Theme -->
  
  <!-- Background -->
  <rect x="10" y="10" width="280" height="460" rx="15" ry="15" fill="#0d0d0d" stroke="#c6a859" stroke-width="5"/>
  
  <!-- External Image Reference to Leprechaun - positioned to be centered on the card -->
  <image x="25" y="25" width="250" height="430" xlink:href="/static/images/leprechaun_card.jpg" preserveAspectRatio="xMidYMid slice"/>
  
  <!-- Ornate Border -->
  <rect x="25" y="25" width="250" height="430" rx="10" ry="10" fill="none" stroke="#c6a859" stroke-width="2"/>
  
  <!-- Center Pattern - Main circle -->
  <circle cx="150" cy="240" r="100" fill="none" stroke="#c6a859" stroke-width="2"/>
  
  <!-- Star Pattern -->
  <path d="M150,140 L170,220 L250,240 L170,260 L150,340 L130,260 L50,240 L130,220 Z" fill="none" stroke="#c6a859" stroke-width="1.5"/>
  
  <!-- Inner Circle -->
  <circle cx="150" cy="240" r="60" fill="none" stroke="#c6a859" stroke-width="1.5"/>
  
  <!-- Moon Symbols -->
  <path d="M120,240 A30,30 0 0,1 180,240 A30,30 0 0,0 120,240" fill="#c6a859" fill-opacity="0.5"/>
  
  <!-- Sun Rays -->
  <g stroke="#c6a859" stroke-width="1">
    <!-- 12 rays around the circle -->
    <line x1="150" y1="130" x2="150" y2="110" />
    <line x1="205" y1="145" x2="220" y2="130" />
    <line x1="235" y1="195" x2="255" y2="190" />
    <line x1="235" y1="285" x2="255" y2="290" />
    <line x1="205" y1="335" x2="220" y2="350" />
    <line x1="150" y1="350" x2="150" y2="370" />
    <line x1="95" y1="335" x2="80" y2="350" />
    <line x1="65" y1="285" x2="45" y2="290" />
    <line x1="65" y1="195" x2="45" y2="190" />
    <line x1="95" y1="145" x2="80" y2="130" />
    <!-- Diagonal rays -->
    <line x1="186" y1="186" x2="201" y2="171" />
    <line x1="186" y1="294" x2="201" y2="309" />
    <line x1="114" y1="294" x2="99" y2="309" />
    <line x1="114" y1="186" x2="99" y2="171" />
  </g>
  
  <!-- Inner Star Pattern -->
  <path d="M150,200 L160,230 L190,240 L160,250 L150,280 L140,250 L110,240 L140,230 Z" fill="#c6a859" fill-opacity="0.3"/>
  
  <!-- Corner Ornaments -->
  <!-- Top Left -->
  <g transform="translate(40,40)">
    <circle cx="0" cy="0" r="15" fill="none" stroke="#c6a859" stroke-width="1"/>
    <path d="M0,-15 L4,-4 L15,-8 L8,0 L15,8 L4,4 L0,15 L-4,4 L-15,8 L-8,0 L-15,-8 L-4,-4 Z" fill="none" stroke="#c6a859" stroke-width="1"/>
  </g>
  
  <!-- Top Right -->
  <g transform="translate(260,40)">
    <circle cx="0" cy="0" r="15" fill="none" stroke="#c6a859" stroke-width="1"/>
    <path d="M0,-15 L4,-4 L15,-8 L8,0 L15,8 L4,4 L0,15 L-4,4 L-15,8 L-8,0 L-15,-8 L-4,-4 Z" fill="none" stroke="#c6a859" stroke-width="1"/>
  </g>
  
  <!-- Bottom Left -->
  <g transform="translate(40,440)">
    <circle cx="0" cy="0" r="15" fill="none" stroke="#c6a859" stroke-width="1"/>
    <path d="M0,-15 L4,-4 L15,-8 L8,0 L15,8 L4,4 L0,15 L-4,4 L-15,8 L-8,0 L-15,-8 L-4,-4 Z" fill="none" stroke="#c6a859" stroke-width="1"/>
  </g>
  
  <!-- Bottom Right -->
  <g transform="translate(260,440)">
    <circle cx="0" cy="0" r="15" fill="none" stroke="#c6a859" stroke-width="1"/>
    <path d="M0,-15 L4,-4 L15,-8 L8,0 L15,8 L4,4 L0,15 L-4,4 L-15,8 L-8,0 L-15,-8 L-4,-4 Z" fill="none" stroke="#c6a859" stroke-width="1"/>
  </g>
  
  <!-- Decorative Border Patterns -->
  <g stroke="#c6a859" stroke-width="1" fill="none">
    <!-- Top -->
    <path d="M75,35 Q150,55 225,35" />
    <!-- Bottom -->
    <path d="M75,445 Q150,425 225,445" />
    <!-- Left -->
    <path d="M35,75 Q55,150 35,225" />
    <path d="M35,255 Q55,330 35,405" />
    <!-- Right -->
    <path d="M265,75 Q245,150 265,225" />
    <path d="M265,255 Q245,330 265,405" />
  </g>
  
  <!-- Mystical Symbols -->
  <g fill="#c6a859" fill-opacity="0.6">
    <!-- Various alchemical and mystical symbols across the card -->
    <text x="80" y="100" font-family="serif" font-size="12">✧</text>
    <text x="220" y="100" font-family="serif" font-size="12">✧</text>
    <text x="80" y="380" font-family="serif" font-size="12">✧</text>
    <text x="220" y="380" font-family="serif" font-size="12">✧</text>
    
    <text x="150" y="60" font-family="serif" font-size="14" text-anchor="middle">☽</text>
    <text x="150" y="420" font-family="serif" font-size="14" text-anchor="middle">☉</text>
    <text x="60" y="240" font-family="serif" font-size="14" text-anchor="middle">★</text>
    <text x="240" y="240" font-family="serif" font-size="14" text-anchor="middle">★</text>
  </g>
</svg>
